<svg width="74" height="74" viewBox="0 0 74 74" fill="none" xmlns="http://www.w3.org/2000/svg">
<g clip-path="url(#clip0)">
<path d="M37.0001 0C16.5655 0 0 16.5655 0 37.0001C0 57.4348 16.5655 74.0002 37.0001 74.0002C57.4348 74.0002 74.0002 57.4348 74.0002 37.0001C74.0002 16.5655 57.4345 0 37.0001 0ZM37.0001 64.7501C21.6743 64.7501 9.25008 52.3259 9.25008 37.0001C9.25008 21.6743 21.6743 9.25008 37.0001 9.25008C52.3259 9.25008 64.7501 21.6743 64.7501 37.0001C64.7501 52.3259 52.3259 64.7501 37.0001 64.7501Z" fill="#0F62FE"/>
<path d="M74.0001 37C74.0001 57.4346 57.4346 74.0001 37 74.0001V64.75C52.3258 64.75 64.75 52.3258 64.75 37H74.0001Z" fill="#E5E5E5"/>
</g>
<defs>
<clipPath id="clip0">
<rect width="74" height="74" fill="white"/>
</clipPath>
</defs>
</svg>
