<svg width="160" height="33" viewBox="0 0 160 33" fill="none" xmlns="http://www.w3.org/2000/svg">
<path d="M22.7132 26.6368L1.2702 11.7814C-0.902784 10.2761 -0.164112 7.14173 2.54554 6.40466L25.3356 0.192408C25.8183 0.0174559 26.3357 -0.0393359 26.8447 0.0267477C27.3537 0.0928313 27.8396 0.279883 28.2622 0.57238C28.6848 0.864877 29.0318 1.25438 29.2745 1.70857C29.5172 2.16275 29.6485 2.66852 29.6576 3.18389L28.307 24.2503C28.1468 26.7508 24.8861 28.1421 22.7132 26.6368Z" fill="#E9327C"/>
<path d="M15.9121 30.3041L3.27944 5.49229C2.99067 4.92466 2.8636 4.28797 2.91223 3.65243C2.96087 3.01688 3.18333 2.40717 3.55507 1.89053C3.92682 1.3739 4.4334 0.970407 5.01897 0.72456C5.60454 0.478713 6.24634 0.400061 6.87358 0.497275L30.2851 4.12619C30.8241 4.20975 31.3357 4.4206 31.7778 4.74142C32.2198 5.06224 32.5797 5.48386 32.8279 5.97161C33.0761 6.45936 33.2055 6.99931 33.2054 7.54706C33.2053 8.09482 33.0758 8.63473 32.8274 9.1224L22.0426 30.3053C21.753 30.8713 21.3137 31.3461 20.7728 31.6776C20.232 32.0091 19.6106 32.1844 18.977 32.1843C18.3434 32.1842 17.7221 32.0086 17.1814 31.6769C16.6407 31.3452 16.2015 30.8702 15.9121 30.3041Z" fill="#1DACE3"/>
<path d="M29.6003 4.01932L17.9298 2.21027L3.60101 6.11768L9.32033 17.355L22.7132 26.6367C23.0087 26.8392 23.3337 26.9943 23.6766 27.0965L28.7636 17.1053L29.6003 4.01932Z" fill="#001A49"/>
<path d="M88.7142 6.9196C88.7142 6.48392 88.8429 6.05804 89.0839 5.69579C89.3249 5.33354 89.6674 5.0512 90.0682 4.88447C90.469 4.71775 90.91 4.67413 91.3354 4.75912C91.7609 4.84412 92.1517 5.05392 92.4584 5.36198C92.7652 5.67005 92.9741 6.06255 93.0587 6.48985C93.1433 6.91715 93.0999 7.36006 92.9339 7.76257C92.7679 8.16508 92.4868 8.50911 92.1261 8.75115C91.7654 8.9932 91.3413 9.12239 90.9075 9.12239C90.3277 9.11646 89.7732 8.88247 89.3632 8.47064C88.9531 8.05882 88.7201 7.50197 88.7142 6.9196ZM89.08 10.1992H92.7363V22.4364H89.08V10.1992Z" fill="#001A49"/>
<path d="M108.526 16.3179C108.568 17.1267 108.451 17.936 108.181 18.6993C107.911 19.4625 107.493 20.1646 106.952 20.7651C106.411 21.3656 105.757 21.8528 105.027 22.1986C104.298 22.5443 103.508 22.7419 102.702 22.7798C102.025 22.8169 101.347 22.7021 100.719 22.4438C100.091 22.1855 99.5283 21.7902 99.0711 21.2865V27.3319H95.416V10.1993H99.0711V11.3493C99.5284 10.8458 100.091 10.4507 100.719 10.1926C101.347 9.93452 102.025 9.81994 102.702 9.85713C103.508 9.89494 104.298 10.0923 105.027 10.438C105.757 10.7836 106.411 11.2707 106.952 11.8711C107.493 12.4715 107.911 13.1735 108.181 13.9367C108.451 14.6998 108.568 15.5091 108.526 16.3179ZM104.871 16.3179C104.856 15.7449 104.674 15.189 104.346 14.7196C104.019 14.2501 103.561 13.8881 103.03 13.6789C102.499 13.4696 101.918 13.4223 101.36 13.5429C100.802 13.6636 100.292 13.9468 99.8936 14.3571C99.4952 14.7675 99.2262 15.2867 99.1201 15.8498C99.0141 16.413 99.0758 16.995 99.2976 17.5231C99.5193 18.0512 99.8912 18.5019 100.367 18.8188C100.842 19.1356 101.4 19.3046 101.971 19.3046C102.363 19.3223 102.754 19.2566 103.119 19.1117C103.483 18.9669 103.814 18.7462 104.087 18.4641C104.361 18.1821 104.573 17.845 104.708 17.4751C104.843 17.1052 104.898 16.7109 104.871 16.3179Z" fill="#001A49"/>
<path d="M119.808 18.7631C119.808 21.5781 117.371 22.7773 114.739 22.7773C113.675 22.8739 112.608 22.6479 111.674 22.1285C110.74 21.6091 109.983 20.8202 109.5 19.8639L112.667 18.0536C112.796 18.4957 113.072 18.8799 113.449 19.1421C113.826 19.4043 114.281 19.5286 114.739 19.4941C115.616 19.4941 116.053 19.224 116.053 18.7354C116.053 17.3886 110.059 18.0992 110.059 13.8641C110.059 11.1967 112.3 9.85102 114.84 9.85102C115.793 9.82099 116.736 10.048 117.572 10.5085C118.407 10.969 119.105 11.646 119.591 12.4692L116.473 14.1582C116.337 13.837 116.109 13.5632 115.819 13.371C115.528 13.1789 115.188 13.0769 114.84 13.0778C114.207 13.0778 113.817 13.3179 113.817 13.7632C113.814 15.1677 119.808 14.2374 119.808 18.7631Z" fill="#001A49"/>
<path d="M133.167 10.1992V22.4364H129.512V21.284C129.09 21.7916 128.554 22.1916 127.948 22.4512C127.342 22.7108 126.684 22.8225 126.027 22.7773C123.566 22.7773 121.47 21.0151 121.47 17.7103V10.1992H125.125V17.1749C125.095 17.4665 125.128 17.7614 125.222 18.039C125.316 18.3166 125.47 18.5702 125.671 18.7822C125.873 18.9942 126.119 19.1594 126.391 19.2664C126.662 19.3734 126.954 19.4195 127.246 19.4017C128.586 19.4017 129.517 18.619 129.517 16.8808V10.1992H133.167Z" fill="#001A49"/>
<path d="M154.118 14.9217V22.4365H150.463V15.241C150.463 14.0178 149.877 13.2339 148.708 13.2339C147.489 13.2339 146.807 14.091 146.807 15.5352V22.4365H143.151V15.241C143.151 14.0178 142.567 13.2339 141.397 13.2339C140.179 13.2339 139.496 14.091 139.496 15.5352V22.4365H135.841V10.1992H139.502V11.3204C139.881 10.8212 140.378 10.4252 140.949 10.1688C141.519 9.9123 142.144 9.8035 142.767 9.8523C143.393 9.82157 144.016 9.95414 144.576 10.2371C145.135 10.5201 145.612 10.9437 145.96 11.4669C146.365 10.9195 146.902 10.4843 147.52 10.2019C148.138 9.91957 148.817 9.79927 149.494 9.8523C152.291 9.8571 154.118 11.863 154.118 14.9217Z" fill="#001A49"/>
<path d="M157.215 10.1236C158.713 10.1236 159.928 8.9036 159.928 7.39863C159.928 5.89366 158.713 4.67365 157.215 4.67365C155.716 4.67365 154.501 5.89366 154.501 7.39863C154.501 8.9036 155.716 10.1236 157.215 10.1236Z" fill="#001A49"/>
<path d="M38.8098 4.57037H42.4661V22.4365H38.8098V4.57037ZM44.5363 16.3178C44.5323 15.0349 44.9074 13.7796 45.6142 12.7109C46.3209 11.6422 47.3276 10.8082 48.5066 10.3144C49.6856 9.82063 50.984 9.68934 52.2374 9.93715C53.4908 10.185 54.6427 10.8007 55.5474 11.7065C56.4521 12.6122 57.0689 13.7673 57.3196 15.0253C57.5703 16.2833 57.4436 17.5877 56.9557 18.7734C56.4678 19.9591 55.6405 20.9727 54.5787 21.6859C53.5168 22.3991 52.2681 22.7798 50.9907 22.7798C50.1423 22.7889 49.3006 22.6281 48.5147 22.3069C47.7289 21.9856 47.0146 21.5103 46.4137 20.9087C45.8128 20.3071 45.3373 19.5913 45.015 18.803C44.6926 18.0148 44.5299 17.1699 44.5363 16.3178ZM53.7972 16.3178C53.7828 15.7644 53.6063 15.2275 53.2898 14.7743C52.9732 14.3211 52.5306 13.9718 52.0173 13.7699C51.5041 13.568 50.943 13.5226 50.4041 13.6394C49.8653 13.7561 49.3728 14.0298 48.988 14.4263C48.6033 14.8227 48.3435 15.3243 48.2411 15.8683C48.1387 16.4122 48.1983 16.9744 48.4125 17.4846C48.6266 17.9947 48.9857 18.4301 49.4449 18.7363C49.9042 19.0425 50.4431 19.2059 50.9943 19.2061C51.3717 19.2169 51.7473 19.149 52.0974 19.0068C52.4474 18.8646 52.7643 18.651 53.0281 18.3797C53.2919 18.1083 53.4968 17.785 53.63 17.4302C53.7632 17.0753 53.8218 16.6966 53.802 16.3178H53.7972ZM72.0237 10.1956V21.8218C72.0237 25.9333 68.8312 27.6704 65.5908 27.6704C64.4502 27.7568 63.3079 27.5262 62.2891 27.0038C61.2704 26.4815 60.4145 25.6875 59.8153 24.7089L62.9337 22.8974C63.1854 23.4082 63.5864 23.8295 64.083 24.1052C64.5796 24.3808 65.1482 24.4977 65.7127 24.44C66.073 24.4894 66.4397 24.4569 66.7859 24.345C67.132 24.233 67.4487 24.0444 67.7125 23.7931C67.9764 23.5418 68.1807 23.2343 68.3104 22.8931C68.4401 22.5519 68.4918 22.1858 68.4618 21.8218V20.6958C68.0336 21.2217 67.4888 21.6395 66.8708 21.9157C66.2529 22.1919 65.5791 22.3189 64.9035 22.2864C63.2952 22.2362 61.7695 21.5593 60.6495 20.3989C59.5296 19.2386 58.9032 17.686 58.9032 16.0699C58.9032 14.4539 59.5296 12.9013 60.6495 11.741C61.7695 10.5806 63.2952 9.90369 64.9035 9.85349C65.5791 9.82102 66.2529 9.94799 66.8708 10.2242C67.4888 10.5004 68.0336 10.9182 68.4618 11.4441V10.1956H72.0237ZM68.4666 16.0693C68.4907 15.4783 68.3382 14.8935 68.0287 14.3902C67.7192 13.8869 67.267 13.488 66.73 13.245C66.193 13.0019 65.5959 12.9256 65.0155 13.0261C64.435 13.1265 63.8978 13.399 63.4728 13.8086C63.0478 14.2182 62.7545 14.746 62.6306 15.3243C62.5066 15.9026 62.5578 16.505 62.7774 17.0538C62.9971 17.6027 63.3752 18.073 63.8631 18.4044C64.351 18.7357 64.9265 18.9129 65.5155 18.9132C65.8995 18.9403 66.285 18.8864 66.647 18.7549C67.0091 18.6234 67.3397 18.4173 67.6177 18.1498C67.8956 17.8823 68.1148 17.5593 68.261 17.2016C68.4072 16.8439 68.4772 16.4595 68.4666 16.0729V16.0693ZM74.0939 16.3094C74.0899 15.0265 74.465 13.7712 75.1718 12.7025C75.8785 11.6338 76.8852 10.7998 78.0642 10.306C79.2432 9.81222 80.5416 9.68094 81.795 9.92875C83.0483 10.1766 84.2003 10.7923 85.105 11.6981C86.0097 12.6038 86.6264 13.7588 86.8771 15.0169C87.1278 16.2749 87.0012 17.5793 86.5133 18.765C86.0254 19.9507 85.1981 20.9643 84.1363 21.6775C83.0744 22.3907 81.8257 22.7714 80.5483 22.7714C79.7006 22.7805 78.8596 22.62 78.0743 22.2992C77.289 21.9785 76.5751 21.5039 75.9743 20.9032C75.3735 20.3025 74.8979 19.5877 74.575 18.8004C74.2522 18.0132 74.0886 17.1692 74.0939 16.3178V16.3094ZM83.3548 16.3094C83.3406 15.7557 83.1642 15.2184 82.8476 14.7648C82.531 14.3112 82.0882 13.9615 81.5747 13.7594C81.0612 13.5573 80.4997 13.5117 79.9605 13.6285C79.4214 13.7453 78.9285 14.0191 78.5435 14.4158C78.1586 14.8125 77.8986 15.3144 77.7962 15.8587C77.6939 16.403 77.7536 16.9656 77.968 17.476C78.1823 17.9864 78.5418 18.4219 79.0014 18.7282C79.461 19.0344 80.0003 19.1977 80.5519 19.1977C80.9282 19.2077 81.3025 19.1396 81.6514 18.9976C82.0003 18.8556 82.3162 18.6427 82.5793 18.3723C82.8425 18.102 83.0472 17.7799 83.1806 17.4264C83.314 17.0729 83.3733 16.6955 83.3548 16.3178V16.3094Z" fill="#001A49"/>
</svg>
