<svg width="18" height="21" viewBox="0 0 18 21" fill="none" xmlns="http://www.w3.org/2000/svg">
<path d="M6.53891 7.996C8.53142 7.996 10.1467 6.38075 10.1467 4.38824C10.1467 2.39574 8.53142 0.780487 6.53891 0.780487C4.5464 0.780487 2.93115 2.39574 2.93115 4.38824C2.93115 6.38075 4.5464 7.996 6.53891 7.996Z" fill="#555555"/>
<path d="M11.5682 12.1604C10.3689 10.7183 8.56139 9.79987 6.53906 9.79987C2.92763 9.79987 0 12.7275 0 16.3389H7.38971L11.5682 12.1604Z" fill="#555555"/>
<path d="M14.0103 10.9467L15.5166 9.44031L17.8585 11.7822L16.3521 13.2886L14.0103 10.9467Z" fill="#555555"/>
<path d="M6.5542 20.7446L9.26001 19.9547L7.34408 18.0388L6.5542 20.7446Z" fill="#555555"/>
<path d="M7.93701 17.0008L13.1525 11.7853L15.5133 14.1461L10.2978 19.3616L7.93701 17.0008Z" fill="#555555"/>
</svg>
