<svg width="173" height="63" viewBox="0 0 173 63" fill="none" xmlns="http://www.w3.org/2000/svg">
<path d="M55.659 26.4538C53.4001 18.9549 47.485 13.0398 39.9861 10.7808C39.5239 7.45591 36.6699 4.88527 33.2199 4.88527C29.7817 4.88527 26.9355 7.4393 26.4587 10.7476H23.4494V9.77056C23.4494 5.45392 19.9496 1.9541 15.6329 1.9541C11.3163 1.9541 7.81647 5.45392 7.81647 9.77056V16.5005C9.19119 16.3247 10.5053 15.9289 11.7247 15.3163V9.77056C11.7247 7.61224 13.4746 5.86233 15.6329 5.86233C17.7912 5.86233 19.5412 7.61224 19.5412 9.77056V15.3163C20.7605 15.928 22.0747 16.3237 23.4494 16.5005V12.7017H26.4587C26.9355 16.01 29.7817 18.5641 33.2199 18.5641C36.6182 18.5641 39.4389 16.0687 39.9636 12.816C46.4034 14.9441 51.4958 20.0365 53.6238 26.4763C50.3712 27.001 47.8758 29.8217 47.8758 33.2199C47.8758 36.6181 50.3712 39.4389 53.6238 39.9636C51.4958 46.4034 46.4034 51.4958 39.9636 53.6238C39.4389 50.3712 36.6182 47.8758 33.2199 47.8758C29.7817 47.8758 26.9355 50.4298 26.4587 53.7381H15.6329V55.6922H26.4587C26.9355 59.0005 29.7817 61.5546 33.2199 61.5546C36.6699 61.5546 39.5239 58.9839 39.9861 55.659C47.485 53.4001 53.4001 47.485 55.659 39.986C58.984 39.5239 61.5546 36.6699 61.5546 33.2199C61.5546 29.7699 58.984 26.916 55.659 26.4538ZM32.2429 15.0603L29.598 12.4155L30.9796 11.0339L32.2429 12.2972L35.4603 9.07978L36.8419 10.4613L32.2429 15.0603ZM32.2429 58.0509L29.598 55.406L30.9796 54.0244L32.2429 55.2877L35.4603 52.0703L36.8419 53.4518L32.2429 58.0509ZM53.7381 36.5556L51.0933 33.9107L52.4748 32.5291L53.7381 33.7925L56.9556 30.575L58.3372 31.9566L53.7381 36.5556Z" fill="#0F62FE"/>
<path d="M11.7247 53.7381H13.6788V55.6922H11.7247V53.7381Z" fill="#0F62FE"/>
<path d="M7.81647 53.7381H9.77058V55.6922H7.81647V53.7381Z" fill="#0F62FE"/>
<path d="M33.2199 43.9676C34.2703 43.9676 35.389 42.4756 36.1599 40.0593H30.279C31.1329 42.7472 32.3259 43.9676 33.2199 43.9676Z" fill="#0B3A91"/>
<path d="M33.2199 22.4723C32.325 22.4723 31.132 23.6917 30.279 26.3805H36.1609C35.389 23.9643 34.2703 22.4723 33.2199 22.4723Z" fill="#0B3A91"/>
<path d="M17.2881 41.7359C22.3834 39.9636 28.3347 36.9269 28.3347 34.197C28.3347 30.1774 25.5051 21.0888 24.6922 18.5592C21.3233 18.4732 18.1508 17.2294 15.6329 15.0173C13.115 17.2294 9.94254 18.4732 6.57365 18.5592C5.76074 21.0888 2.93118 30.1774 2.93118 34.197C2.93118 36.9269 8.88244 39.9636 13.9778 41.7359C15.0408 42.1043 16.225 42.1043 17.2881 41.7359ZM26.3776 33.9498L24.4235 34.0094C24.4088 33.5365 24.3434 32.9248 24.2261 32.192L26.1558 31.8833C26.2858 32.6982 26.36 33.3938 26.3776 33.9498ZM25.7865 29.9135L23.8744 30.3141C23.7484 29.7142 23.6047 29.083 23.4484 28.4382L25.3468 27.978C25.508 28.6443 25.6565 29.2941 25.7865 29.9135ZM24.3463 24.1616C24.5241 24.7928 24.6971 25.4318 24.8632 26.0669L22.9716 26.5593C22.8094 25.935 22.6374 25.3097 22.4635 24.6902L24.3463 24.1616ZM13.6788 35.174V29.7465C12.5151 29.0694 11.7247 27.8236 11.7247 26.3805C11.7247 24.2222 13.4746 22.4723 15.6329 22.4723C17.7912 22.4723 19.5412 24.2222 19.5412 26.3805C19.5412 27.8236 18.7507 29.0694 17.587 29.7465V35.174H13.6788Z" fill="#0F62FE"/>
<path d="M30.1471 32.2429H37.1076C37.0568 30.8291 36.8956 29.5159 36.6582 28.3347H29.4417C29.7494 29.7191 30.0005 31.0597 30.1471 32.2429Z" fill="#0B3A91"/>
<path d="M37.1076 34.197H30.2888C30.2888 35.6186 29.4846 36.9278 28.2477 38.1052H36.6582C36.8966 36.9239 37.0568 35.6108 37.1076 34.197Z" fill="#0B3A91"/>
<path d="M25.6536 40.0593C25.5022 40.1531 25.3478 40.244 25.1934 40.3358C26.3972 41.692 27.9126 42.715 29.5911 43.3227C29.0596 42.4346 28.6014 41.3402 28.2399 40.0593H25.6536Z" fill="#0B3A91"/>
<path d="M36.8488 23.1162C37.3891 24.0141 37.8483 25.1153 38.2078 26.3806H41.5035C40.286 24.9081 38.6798 23.7767 36.8488 23.1162Z" fill="#0B3A91"/>
<path d="M28.6542 25.1094C28.9268 24.3727 29.2365 23.7151 29.5755 23.1436C29.1319 23.3057 28.7001 23.4963 28.278 23.7161C28.404 24.1724 28.5301 24.6375 28.6542 25.1094Z" fill="#0B3A91"/>
<path d="M42.7814 28.3347H38.6622C38.882 29.5433 39.0168 30.8564 39.0618 32.2429H43.9187C43.7917 30.8457 43.3931 29.5276 42.7814 28.3347Z" fill="#0B3A91"/>
<path d="M43.9177 34.197H39.0608C39.0158 35.5834 38.881 36.8966 38.6612 38.1052H42.7804C43.3931 36.9122 43.7917 35.5942 43.9177 34.197Z" fill="#0B3A91"/>
<path d="M41.5044 40.0593H38.2088C37.8492 41.3246 37.391 42.4258 36.8497 43.3237C38.6797 42.6632 40.286 41.5318 41.5044 40.0593Z" fill="#0B3A91"/>
<path d="M80.7147 50H73.1147V15.1H89.6647C91.2647 15.1 92.7147 15.3666 94.0147 15.9C95.3147 16.4333 96.4147 17.2 97.3147 18.2C98.248 19.1666 98.9647 20.3333 99.4647 21.7C99.9647 23.0666 100.215 24.5833 100.215 26.25C100.215 28.6166 99.6813 30.6833 98.6147 32.45C97.5813 34.2166 95.998 35.5 93.8647 36.3L100.715 50H92.2647L86.1647 37.2H80.7147V50ZM88.7147 30.8C89.848 30.8 90.7313 30.5166 91.3647 29.95C92.0313 29.35 92.3647 28.4833 92.3647 27.35V25.15C92.3647 24.0166 92.0313 23.1666 91.3647 22.6C90.7313 22 89.848 21.7 88.7147 21.7H80.7147V30.8H88.7147Z" fill="#0B3A91"/>
<path d="M106.806 50V15.1H123.306C124.939 15.1 126.406 15.3833 127.706 15.95C129.006 16.4833 130.106 17.2333 131.006 18.2C131.939 19.1666 132.656 20.35 133.156 21.75C133.656 23.1166 133.906 24.6166 133.906 26.25C133.906 27.9166 133.656 29.4333 133.156 30.8C132.656 32.1666 131.939 33.3333 131.006 34.3C130.106 35.2666 129.006 36.0333 127.706 36.6C126.406 37.1333 124.939 37.4 123.306 37.4H114.406V50H106.806ZM114.406 30.8H122.406C123.539 30.8 124.423 30.5166 125.056 29.95C125.723 29.35 126.056 28.4833 126.056 27.35V25.15C126.056 24.0166 125.723 23.1666 125.056 22.6C124.423 22 123.539 21.7 122.406 21.7H114.406V30.8Z" fill="#0B3A91"/>
<path d="M165.719 27.1H165.569L163.019 32.2L156.219 44.55L149.569 32.25L146.919 26.75H146.769V50H139.619V15.1H147.669L156.219 31.45H156.319L164.769 15.1H172.869V50H165.719V27.1Z" fill="#0B3A91"/>
</svg>
