<svg width="268" height="27" viewBox="0 0 268 27" fill="none" xmlns="http://www.w3.org/2000/svg">
<path d="M0 5.91304C0 5.91304 4.89512 3.86539 6 0C6 0 6.92453 3.77843 12 5.91304C12 5.91304 6.79218 7.82191 6 12C6 12 5.69118 8.04348 0 5.91304Z" fill="white"/>
<path d="M0 5.91304C0 5.91304 4.89512 3.86539 6 0C6 0 6.92453 3.77843 12 5.91304C12 5.91304 6.79218 7.82191 6 12C6 12 5.69118 8.04348 0 5.91304Z" fill="white"/>
<path d="M0 20.913C0 20.913 4.89512 18.8654 6 15C6 15 6.92453 18.7784 12 20.913C12 20.913 6.79218 22.8219 6 27C6 27 5.69118 23.0435 0 20.913Z" fill="white"/>
<path d="M0 20.913C0 20.913 4.89512 18.8654 6 15C6 15 6.92453 18.7784 12 20.913C12 20.913 6.79218 22.8219 6 27C6 27 5.69118 23.0435 0 20.913Z" fill="white"/>
<path d="M96 5.91304C96 5.91304 100.895 3.86539 102 0C102 0 102.925 3.77843 108 5.91304C108 5.91304 102.792 7.82191 102 12C102 12 101.691 8.04348 96 5.91304Z" fill="white"/>
<path d="M96 5.91304C96 5.91304 100.895 3.86539 102 0C102 0 102.925 3.77843 108 5.91304C108 5.91304 102.792 7.82191 102 12C102 12 101.691 8.04348 96 5.91304Z" fill="white"/>
<path d="M96 20.913C96 20.913 100.895 18.8654 102 15C102 15 102.925 18.7784 108 20.913C108 20.913 102.792 22.8219 102 27C102 27 101.691 23.0435 96 20.913Z" fill="white"/>
<path d="M96 20.913C96 20.913 100.895 18.8654 102 15C102 15 102.925 18.7784 108 20.913C108 20.913 102.792 22.8219 102 27C102 27 101.691 23.0435 96 20.913Z" fill="white"/>
<path d="M192 5.91304C192 5.91304 196.895 3.86539 198 0C198 0 198.925 3.77843 204 5.91304C204 5.91304 198.792 7.82191 198 12C198 12 197.691 8.04348 192 5.91304Z" fill="white"/>
<path d="M192 5.91304C192 5.91304 196.895 3.86539 198 0C198 0 198.925 3.77843 204 5.91304C204 5.91304 198.792 7.82191 198 12C198 12 197.691 8.04348 192 5.91304Z" fill="white"/>
<path d="M192 20.913C192 20.913 196.895 18.8654 198 15C198 15 198.925 18.7784 204 20.913C204 20.913 198.792 22.8219 198 27C198 27 197.691 23.0435 192 20.913Z" fill="white"/>
<path d="M192 20.913C192 20.913 196.895 18.8654 198 15C198 15 198.925 18.7784 204 20.913C204 20.913 198.792 22.8219 198 27C198 27 197.691 23.0435 192 20.913Z" fill="white"/>
<path d="M16 5.91304C16 5.91304 20.8951 3.86539 22 0C22 0 22.9245 3.77843 28 5.91304C28 5.91304 22.7922 7.82191 22 12C22 12 21.6912 8.04348 16 5.91304Z" fill="white"/>
<path d="M16 5.91304C16 5.91304 20.8951 3.86539 22 0C22 0 22.9245 3.77843 28 5.91304C28 5.91304 22.7922 7.82191 22 12C22 12 21.6912 8.04348 16 5.91304Z" fill="white"/>
<path d="M16 20.913C16 20.913 20.8951 18.8654 22 15C22 15 22.9245 18.7784 28 20.913C28 20.913 22.7922 22.8219 22 27C22 27 21.6912 23.0435 16 20.913Z" fill="white"/>
<path d="M16 20.913C16 20.913 20.8951 18.8654 22 15C22 15 22.9245 18.7784 28 20.913C28 20.913 22.7922 22.8219 22 27C22 27 21.6912 23.0435 16 20.913Z" fill="white"/>
<path d="M112 5.91304C112 5.91304 116.895 3.86539 118 0C118 0 118.925 3.77843 124 5.91304C124 5.91304 118.792 7.82191 118 12C118 12 117.691 8.04348 112 5.91304Z" fill="white"/>
<path d="M112 5.91304C112 5.91304 116.895 3.86539 118 0C118 0 118.925 3.77843 124 5.91304C124 5.91304 118.792 7.82191 118 12C118 12 117.691 8.04348 112 5.91304Z" fill="white"/>
<path d="M112 20.913C112 20.913 116.895 18.8654 118 15C118 15 118.925 18.7784 124 20.913C124 20.913 118.792 22.8219 118 27C118 27 117.691 23.0435 112 20.913Z" fill="white"/>
<path d="M112 20.913C112 20.913 116.895 18.8654 118 15C118 15 118.925 18.7784 124 20.913C124 20.913 118.792 22.8219 118 27C118 27 117.691 23.0435 112 20.913Z" fill="white"/>
<path d="M208 5.91304C208 5.91304 212.895 3.86539 214 0C214 0 214.925 3.77843 220 5.91304C220 5.91304 214.792 7.82191 214 12C214 12 213.691 8.04348 208 5.91304Z" fill="white"/>
<path d="M208 5.91304C208 5.91304 212.895 3.86539 214 0C214 0 214.925 3.77843 220 5.91304C220 5.91304 214.792 7.82191 214 12C214 12 213.691 8.04348 208 5.91304Z" fill="white"/>
<path d="M208 20.913C208 20.913 212.895 18.8654 214 15C214 15 214.925 18.7784 220 20.913C220 20.913 214.792 22.8219 214 27C214 27 213.691 23.0435 208 20.913Z" fill="white"/>
<path d="M208 20.913C208 20.913 212.895 18.8654 214 15C214 15 214.925 18.7784 220 20.913C220 20.913 214.792 22.8219 214 27C214 27 213.691 23.0435 208 20.913Z" fill="white"/>
<path d="M32 5.91304C32 5.91304 36.8951 3.86539 38 0C38 0 38.9245 3.77843 44 5.91304C44 5.91304 38.7922 7.82191 38 12C38 12 37.6912 8.04348 32 5.91304Z" fill="white"/>
<path d="M32 5.91304C32 5.91304 36.8951 3.86539 38 0C38 0 38.9245 3.77843 44 5.91304C44 5.91304 38.7922 7.82191 38 12C38 12 37.6912 8.04348 32 5.91304Z" fill="white"/>
<path d="M32 20.913C32 20.913 36.8951 18.8654 38 15C38 15 38.9245 18.7784 44 20.913C44 20.913 38.7922 22.8219 38 27C38 27 37.6912 23.0435 32 20.913Z" fill="white"/>
<path d="M32 20.913C32 20.913 36.8951 18.8654 38 15C38 15 38.9245 18.7784 44 20.913C44 20.913 38.7922 22.8219 38 27C38 27 37.6912 23.0435 32 20.913Z" fill="white"/>
<path d="M128 5.91304C128 5.91304 132.895 3.86539 134 0C134 0 134.925 3.77843 140 5.91304C140 5.91304 134.792 7.82191 134 12C134 12 133.691 8.04348 128 5.91304Z" fill="white"/>
<path d="M128 5.91304C128 5.91304 132.895 3.86539 134 0C134 0 134.925 3.77843 140 5.91304C140 5.91304 134.792 7.82191 134 12C134 12 133.691 8.04348 128 5.91304Z" fill="white"/>
<path d="M128 20.913C128 20.913 132.895 18.8654 134 15C134 15 134.925 18.7784 140 20.913C140 20.913 134.792 22.8219 134 27C134 27 133.691 23.0435 128 20.913Z" fill="white"/>
<path d="M128 20.913C128 20.913 132.895 18.8654 134 15C134 15 134.925 18.7784 140 20.913C140 20.913 134.792 22.8219 134 27C134 27 133.691 23.0435 128 20.913Z" fill="white"/>
<path d="M224 5.91304C224 5.91304 228.895 3.86539 230 0C230 0 230.925 3.77843 236 5.91304C236 5.91304 230.792 7.82191 230 12C230 12 229.691 8.04348 224 5.91304Z" fill="white"/>
<path d="M224 5.91304C224 5.91304 228.895 3.86539 230 0C230 0 230.925 3.77843 236 5.91304C236 5.91304 230.792 7.82191 230 12C230 12 229.691 8.04348 224 5.91304Z" fill="white"/>
<path d="M224 20.913C224 20.913 228.895 18.8654 230 15C230 15 230.925 18.7784 236 20.913C236 20.913 230.792 22.8219 230 27C230 27 229.691 23.0435 224 20.913Z" fill="white"/>
<path d="M224 20.913C224 20.913 228.895 18.8654 230 15C230 15 230.925 18.7784 236 20.913C236 20.913 230.792 22.8219 230 27C230 27 229.691 23.0435 224 20.913Z" fill="white"/>
<path d="M48 5.91304C48 5.91304 52.8951 3.86539 54 0C54 0 54.9245 3.77843 60 5.91304C60 5.91304 54.7922 7.82191 54 12C54 12 53.6912 8.04348 48 5.91304Z" fill="white"/>
<path d="M48 5.91304C48 5.91304 52.8951 3.86539 54 0C54 0 54.9245 3.77843 60 5.91304C60 5.91304 54.7922 7.82191 54 12C54 12 53.6912 8.04348 48 5.91304Z" fill="white"/>
<path d="M48 20.913C48 20.913 52.8951 18.8654 54 15C54 15 54.9245 18.7784 60 20.913C60 20.913 54.7922 22.8219 54 27C54 27 53.6912 23.0435 48 20.913Z" fill="white"/>
<path d="M48 20.913C48 20.913 52.8951 18.8654 54 15C54 15 54.9245 18.7784 60 20.913C60 20.913 54.7922 22.8219 54 27C54 27 53.6912 23.0435 48 20.913Z" fill="white"/>
<path d="M144 5.91304C144 5.91304 148.895 3.86539 150 0C150 0 150.925 3.77843 156 5.91304C156 5.91304 150.792 7.82191 150 12C150 12 149.691 8.04348 144 5.91304Z" fill="white"/>
<path d="M144 5.91304C144 5.91304 148.895 3.86539 150 0C150 0 150.925 3.77843 156 5.91304C156 5.91304 150.792 7.82191 150 12C150 12 149.691 8.04348 144 5.91304Z" fill="white"/>
<path d="M144 20.913C144 20.913 148.895 18.8654 150 15C150 15 150.925 18.7784 156 20.913C156 20.913 150.792 22.8219 150 27C150 27 149.691 23.0435 144 20.913Z" fill="white"/>
<path d="M144 20.913C144 20.913 148.895 18.8654 150 15C150 15 150.925 18.7784 156 20.913C156 20.913 150.792 22.8219 150 27C150 27 149.691 23.0435 144 20.913Z" fill="white"/>
<path d="M240 5.91304C240 5.91304 244.895 3.86539 246 0C246 0 246.925 3.77843 252 5.91304C252 5.91304 246.792 7.82191 246 12C246 12 245.691 8.04348 240 5.91304Z" fill="white"/>
<path d="M240 5.91304C240 5.91304 244.895 3.86539 246 0C246 0 246.925 3.77843 252 5.91304C252 5.91304 246.792 7.82191 246 12C246 12 245.691 8.04348 240 5.91304Z" fill="white"/>
<path d="M64 5.91304C64 5.91304 68.8951 3.86539 70 0C70 0 70.9245 3.77843 76 5.91304C76 5.91304 70.7922 7.82191 70 12C70 12 69.6912 8.04348 64 5.91304Z" fill="white"/>
<path d="M64 5.91304C64 5.91304 68.8951 3.86539 70 0C70 0 70.9245 3.77843 76 5.91304C76 5.91304 70.7922 7.82191 70 12C70 12 69.6912 8.04348 64 5.91304Z" fill="white"/>
<path d="M64 20.913C64 20.913 68.8951 18.8654 70 15C70 15 70.9245 18.7784 76 20.913C76 20.913 70.7922 22.8219 70 27C70 27 69.6912 23.0435 64 20.913Z" fill="white"/>
<path d="M64 20.913C64 20.913 68.8951 18.8654 70 15C70 15 70.9245 18.7784 76 20.913C76 20.913 70.7922 22.8219 70 27C70 27 69.6912 23.0435 64 20.913Z" fill="white"/>
<path d="M160 5.91304C160 5.91304 164.895 3.86539 166 0C166 0 166.925 3.77843 172 5.91304C172 5.91304 166.792 7.82191 166 12C166 12 165.691 8.04348 160 5.91304Z" fill="white"/>
<path d="M160 5.91304C160 5.91304 164.895 3.86539 166 0C166 0 166.925 3.77843 172 5.91304C172 5.91304 166.792 7.82191 166 12C166 12 165.691 8.04348 160 5.91304Z" fill="white"/>
<path d="M160 20.913C160 20.913 164.895 18.8654 166 15C166 15 166.925 18.7784 172 20.913C172 20.913 166.792 22.8219 166 27C166 27 165.691 23.0435 160 20.913Z" fill="white"/>
<path d="M160 20.913C160 20.913 164.895 18.8654 166 15C166 15 166.925 18.7784 172 20.913C172 20.913 166.792 22.8219 166 27C166 27 165.691 23.0435 160 20.913Z" fill="white"/>
<path d="M256 5.91304C256 5.91304 260.895 3.86539 262 0C262 0 262.925 3.77843 268 5.91304C268 5.91304 262.792 7.82191 262 12C262 12 261.691 8.04348 256 5.91304Z" fill="white"/>
<path d="M256 5.91304C256 5.91304 260.895 3.86539 262 0C262 0 262.925 3.77843 268 5.91304C268 5.91304 262.792 7.82191 262 12C262 12 261.691 8.04348 256 5.91304Z" fill="white"/>
<path d="M80 5.91304C80 5.91304 84.8951 3.86539 86 0C86 0 86.9245 3.77843 92 5.91304C92 5.91304 86.7922 7.82191 86 12C86 12 85.6912 8.04348 80 5.91304Z" fill="white"/>
<path d="M80 5.91304C80 5.91304 84.8951 3.86539 86 0C86 0 86.9245 3.77843 92 5.91304C92 5.91304 86.7922 7.82191 86 12C86 12 85.6912 8.04348 80 5.91304Z" fill="white"/>
<path d="M80 20.913C80 20.913 84.8951 18.8654 86 15C86 15 86.9245 18.7784 92 20.913C92 20.913 86.7922 22.8219 86 27C86 27 85.6912 23.0435 80 20.913Z" fill="white"/>
<path d="M80 20.913C80 20.913 84.8951 18.8654 86 15C86 15 86.9245 18.7784 92 20.913C92 20.913 86.7922 22.8219 86 27C86 27 85.6912 23.0435 80 20.913Z" fill="white"/>
<path d="M176 5.91304C176 5.91304 180.895 3.86539 182 0C182 0 182.925 3.77843 188 5.91304C188 5.91304 182.792 7.82191 182 12C182 12 181.691 8.04348 176 5.91304Z" fill="white"/>
<path d="M176 5.91304C176 5.91304 180.895 3.86539 182 0C182 0 182.925 3.77843 188 5.91304C188 5.91304 182.792 7.82191 182 12C182 12 181.691 8.04348 176 5.91304Z" fill="white"/>
<path d="M176 20.913C176 20.913 180.895 18.8654 182 15C182 15 182.925 18.7784 188 20.913C188 20.913 182.792 22.8219 182 27C182 27 181.691 23.0435 176 20.913Z" fill="white"/>
<path d="M176 20.913C176 20.913 180.895 18.8654 182 15C182 15 182.925 18.7784 188 20.913C188 20.913 182.792 22.8219 182 27C182 27 181.691 23.0435 176 20.913Z" fill="white"/>
</svg>
