<svg width="76" height="41" viewBox="0 0 76 41" fill="none" xmlns="http://www.w3.org/2000/svg">
<path d="M0 19.913C0 19.913 4.89512 17.8654 6 14C6 14 6.92453 17.7784 12 19.913C12 19.913 6.79218 21.8219 6 26C6 26 5.69118 22.0435 0 19.913Z" fill="white"/>
<path d="M0 19.913C0 19.913 4.89512 17.8654 6 14C6 14 6.92453 17.7784 12 19.913C12 19.913 6.79218 21.8219 6 26C6 26 5.69118 22.0435 0 19.913Z" fill="white"/>
<path d="M0 34.913C0 34.913 4.89512 32.8654 6 29C6 29 6.92453 32.7784 12 34.913C12 34.913 6.79218 36.8219 6 41C6 41 5.69118 37.0435 0 34.913Z" fill="white"/>
<path d="M0 34.913C0 34.913 4.89512 32.8654 6 29C6 29 6.92453 32.7784 12 34.913C12 34.913 6.79218 36.8219 6 41C6 41 5.69118 37.0435 0 34.913Z" fill="white"/>
<path d="M16 19.913C16 19.913 20.8951 17.8654 22 14C22 14 22.9245 17.7784 28 19.913C28 19.913 22.7922 21.8219 22 26C22 26 21.6912 22.0435 16 19.913Z" fill="white"/>
<path d="M16 19.913C16 19.913 20.8951 17.8654 22 14C22 14 22.9245 17.7784 28 19.913C28 19.913 22.7922 21.8219 22 26C22 26 21.6912 22.0435 16 19.913Z" fill="white"/>
<path d="M16 34.913C16 34.913 20.8951 32.8654 22 29C22 29 22.9245 32.7784 28 34.913C28 34.913 22.7922 36.8219 22 41C22 41 21.6912 37.0435 16 34.913Z" fill="white"/>
<path d="M16 34.913C16 34.913 20.8951 32.8654 22 29C22 29 22.9245 32.7784 28 34.913C28 34.913 22.7922 36.8219 22 41C22 41 21.6912 37.0435 16 34.913Z" fill="white"/>
<path d="M32 19.913C32 19.913 36.8951 17.8654 38 14C38 14 38.9245 17.7784 44 19.913C44 19.913 38.7922 21.8219 38 26C38 26 37.6912 22.0435 32 19.913Z" fill="white"/>
<path d="M32 19.913C32 19.913 36.8951 17.8654 38 14C38 14 38.9245 17.7784 44 19.913C44 19.913 38.7922 21.8219 38 26C38 26 37.6912 22.0435 32 19.913Z" fill="white"/>
<path d="M32 34.913C32 34.913 36.8951 32.8654 38 29C38 29 38.9245 32.7784 44 34.913C44 34.913 38.7922 36.8219 38 41C38 41 37.6912 37.0435 32 34.913Z" fill="white"/>
<path d="M32 34.913C32 34.913 36.8951 32.8654 38 29C38 29 38.9245 32.7784 44 34.913C44 34.913 38.7922 36.8219 38 41C38 41 37.6912 37.0435 32 34.913Z" fill="white"/>
<path d="M48 19.913C48 19.913 52.8951 17.8654 54 14C54 14 54.9245 17.7784 60 19.913C60 19.913 54.7922 21.8219 54 26C54 26 53.6912 22.0435 48 19.913Z" fill="white"/>
<path d="M48 19.913C48 19.913 52.8951 17.8654 54 14C54 14 54.9245 17.7784 60 19.913C60 19.913 54.7922 21.8219 54 26C54 26 53.6912 22.0435 48 19.913Z" fill="white"/>
<path d="M48 34.913C48 34.913 52.8951 32.8654 54 29C54 29 54.9245 32.7784 60 34.913C60 34.913 54.7922 36.8219 54 41C54 41 53.6912 37.0435 48 34.913Z" fill="white"/>
<path d="M48 34.913C48 34.913 52.8951 32.8654 54 29C54 29 54.9245 32.7784 60 34.913C60 34.913 54.7922 36.8219 54 41C54 41 53.6912 37.0435 48 34.913Z" fill="white"/>
<path d="M64 19.913C64 19.913 68.8951 17.8654 70 14C70 14 70.9245 17.7784 76 19.913C76 19.913 70.7922 21.8219 70 26C70 26 69.6912 22.0435 64 19.913Z" fill="white"/>
<path d="M64 19.913C64 19.913 68.8951 17.8654 70 14C70 14 70.9245 17.7784 76 19.913C76 19.913 70.7922 21.8219 70 26C70 26 69.6912 22.0435 64 19.913Z" fill="white"/>
<path d="M64 34.913C64 34.913 68.8951 32.8654 70 29C70 29 70.9245 32.7784 76 34.913C76 34.913 70.7922 36.8219 70 41C70 41 69.6912 37.0435 64 34.913Z" fill="white"/>
<path d="M64 34.913C64 34.913 68.8951 32.8654 70 29C70 29 70.9245 32.7784 76 34.913C76 34.913 70.7922 36.8219 70 41C70 41 69.6912 37.0435 64 34.913Z" fill="white"/>
<path d="M32 5.91304C32 5.91304 36.8951 3.86539 38 0C38 0 38.9245 3.77843 44 5.91304C44 5.91304 38.7922 7.82191 38 12C38 12 37.6912 8.04348 32 5.91304Z" fill="white"/>
<path d="M32 5.91304C32 5.91304 36.8951 3.86539 38 0C38 0 38.9245 3.77843 44 5.91304C44 5.91304 38.7922 7.82191 38 12C38 12 37.6912 8.04348 32 5.91304Z" fill="white"/>
<path d="M48 5.91304C48 5.91304 52.8951 3.86539 54 0C54 0 54.9245 3.77843 60 5.91304C60 5.91304 54.7922 7.82191 54 12C54 12 53.6912 8.04348 48 5.91304Z" fill="white"/>
<path d="M64 5.91304C64 5.91304 68.8951 3.86539 70 0C70 0 70.9245 3.77843 76 5.91304C76 5.91304 70.7922 7.82191 70 12C70 12 69.6912 8.04348 64 5.91304Z" fill="white"/>
</svg>
